<svg width="24" height="24" viewBox="0 0 24 24" fill="none" xmlns="http://www.w3.org/2000/svg">
<path fill-rule="evenodd" clip-rule="evenodd" d="M2.4 4.97405C1.629 5.41006 1 6.48807 1 7.37008L1 16.6302C1 17.5112 1.629 18.5892 2.4 19.0262L10.6 23.6722C11.37 24.1093 12.629 24.1093 13.4 23.6722L21.6 19.0262C22.37 18.5892 23 17.5112 23 16.6302V7.37008C23 6.48807 22.37 5.41006 21.6 4.97405L13.4 0.327003C12.629 -0.109001 11.37 -0.109001 10.6 0.327003L2.4 4.97405Z" fill="#5A56FF"/>
<path d="M10.7 10.7266C10.7937 11.2083 11.3745 12.1718 12.9482 12.1718C14.522 12.1718 15.1028 11.2083 15.1964 10.7266" stroke="black" stroke-width="1.19905"/>
<ellipse cx="9.94756" cy="7.59375" rx="2.99996" ry="3" fill="white"/>
<ellipse cx="15.9121" cy="7.59375" rx="2.99996" ry="3" fill="white"/>
<ellipse cx="11.1821" cy="7.59283" rx="1.76468" ry="1.76471" fill="black"/>
<ellipse cx="17.1822" cy="7.59283" rx="1.76468" ry="1.76471" fill="black"/>
</svg>
