<svg viewBox="0 0 256 256" fill="currentColor" xmlns="http://www.w3.org/2000/svg">
    <path d="M128 256C57.312 256 0 198.688 0 128C0 57.312 57.312 0 128 0C198.688 0 256 57.312 256 128C256 198.688 198.688 256 128 256ZM128 234.667C186.912 234.667 234.667 186.912 234.667 128C234.667 69.088 186.912 21.3333 128 21.3333C69.088 21.3333 21.3333 69.088 21.3333 128C21.3333 186.912 69.088 234.667 128 234.667ZM160 170.667V128H181.333V181.333C181.333 184.162 180.21 186.875 178.209 188.876C176.209 190.876 173.496 192 170.667 192H85.3333C82.5044 192 79.7913 190.876 77.7909 188.876C75.7905 186.875 74.6667 184.162 74.6667 181.333V74.6667C74.6667 71.8377 75.7905 69.1246 77.7909 67.1242C79.7913 65.1238 82.5044 64 85.3333 64H117.333V85.3333H96V170.667H160ZM144 106.667C142.586 106.667 141.229 106.105 140.229 105.105C139.229 104.104 138.667 102.748 138.667 101.333V64L181.333 106.667H144Z" fill="black"/>
</svg>
