<svg viewBox="0 0 256 256" fill="currentColor" xmlns="http://www.w3.org/2000/svg">
    <path d="M0.0533222 85.3693C12.1041 80.8902 -1.17309 59.3481 13.2239 57.8017C12.6374 60.0946 13.9704 65.2135 16.3166 62.5474C17.0098 58.3349 23.4085 59.0281 22.9819 54.2291C25.9679 52.4695 29.6472 51.2964 31.8867 48.8436C36.0458 44.2579 42.2312 45.271 47.1369 42.7648C48.0967 43.9379 49.0031 45.2177 49.803 46.5507L51.136 41.1119C55.0819 41.8584 55.3485 42.3383 58.8144 40.7386C74.8111 35.4064 90.5411 42.0183 106.538 38.8723L104.672 43.458C108.777 45.5376 111.39 43.618 115.656 41.965L115.976 47.4572C117.842 48.8436 120.775 46.0175 123.121 45.5909L123.654 40.7919C127.76 41.4318 130.639 39.9388 131.173 35.1398C144.183 37.326 151.488 24.1021 164.766 25.6484C172.604 25.6484 181.722 21.2227 188.654 26.8748C195.639 25.0085 203.371 27.8346 210.516 25.5951C212.756 36.7394 222.727 30.1808 228.113 36.8994C229.659 39.5655 232.485 44.7911 233.765 47.4039C235.044 50.0167 235.471 49.91 232.805 53.8559C232.538 54.2824 232.005 54.8157 232.112 55.0823C235.258 62.1208 233.765 70.1191 237.177 77.2643C238.457 80.6236 236.431 85.4759 238.03 88.9952C245.389 100.993 237.177 97.3135 241.016 105.792C246.082 113.95 239.15 110.431 241.763 115.176C247.095 122.108 243.843 131.333 246.669 139.278C247.255 142.797 245.122 146.69 248.268 149.783C244.642 153.035 247.948 154.795 249.761 156.981C249.975 157.248 248.855 158.527 249.068 158.847C250.721 161.62 247.362 164.819 250.241 167.752C251.308 168.872 250.668 171.965 250.348 174.097C248.055 186.148 255.467 182.576 256 186.841C255.253 189.668 252.321 187.321 250.668 188.974C249.281 191.587 256.16 188.281 253.014 192.28C252.267 198.892 250.348 206.624 242.296 204.864C238.51 196.973 227.046 205.878 220.061 204.971C217.448 205.238 214.569 203.905 212.276 206.517C207.69 208.544 204.171 201.292 198.999 206.731C198.625 207.051 197.132 206.571 196.599 206.091C191.48 201.398 187.001 208.437 182.469 205.451C181.775 204.864 179.909 207.317 177.296 206.091C169.885 203.318 166.525 215.955 159.167 216.062C154.634 217.129 161.673 218.622 155.914 221.714C148.396 220.381 143.543 226.94 136.398 226.513C134.585 226.513 132.772 225.927 131.279 224.86C124.987 221.394 117.042 226.407 111.71 220.275C104.565 213.449 96.3 222.354 89.528 222.781C77.3172 221.554 66.7061 230.299 54.6553 226.193C52.629 229.979 48.3099 228.06 45.8571 229.713C41.6447 232.165 37.4322 230.459 33.3797 231.259C27.7276 235.738 24.9548 229.393 17.9696 231.259C21.1156 227.74 25.488 225.127 20.7423 221.074C22.502 217.288 16.5299 213.556 20.5824 209.557C16.1033 197.719 16.9031 183.376 13.2239 171.165C14.8769 164.393 12.8507 164.926 11.6242 159.434C12.4241 153.995 8.53156 148.983 10.9311 143.224C11.9442 138.692 8.31827 132.133 7.57176 127.174C7.09186 124.881 8.1583 122.535 6.18538 120.189C4.05249 113.683 7.73172 105.418 4.05249 98.7532C3.51927 97.7934 5.59883 94.9673 3.78588 92.9944L0 85.3693H0.0533222ZM224.273 176.23C225.233 169.298 221.127 162.74 222.407 155.701C218.781 152.395 221.767 147.916 220.381 144.397C216.755 137.945 221.554 130 216.008 124.668C212.222 121.042 219.314 118.003 215.262 114.377C214.409 113.523 216.755 109.898 215.955 108.298C213.129 96.567 215.368 84.0362 211.316 72.8386C210.783 71.7188 210.943 70.4391 211.636 69.4259C216.115 66.1733 209.77 61.6942 213.076 58.4416C210.623 57.8017 211.636 52.3095 208.81 54.0692C206.25 55.6688 205.237 54.0692 203.638 53.6959C199.052 52.2029 194.253 51.563 189.454 51.8296C184.708 51.2964 179.749 53.216 175.057 50.4966C174.097 49.91 171.111 51.8296 170.791 51.3497C168.498 48.1504 167.325 53.6959 165.459 51.8829C154.688 57.6417 145.196 61.2677 133.892 66.2799C136.718 70.5457 136.558 75.6647 136.505 80.7303C139.918 85.6359 137.358 93.1543 140.291 98.7532C137.251 101.366 141.197 103.925 140.291 106.538C139.544 112.51 142.477 117.949 142.157 123.815C142.744 126.694 144.717 130.16 143.703 132.24C141.837 136.239 145.303 139.331 144.077 143.011C142.744 146.956 145.41 150.529 145.783 154.315C145.943 155.915 149.142 157.568 145.943 159.274C150.849 161.94 143.703 164.766 146.849 167.486C155.861 169.352 140.984 173.724 147.649 178.043C148.182 178.523 148.023 179.696 148.236 180.656C155.221 180.123 161.833 182.149 168.338 179.003C171.538 176.71 173.83 180.869 176.71 180.603C182.362 176.977 188.707 179.27 194.679 179.056C197.239 179.056 199.798 182.469 202.571 179.056C206.464 182.842 209.983 177.19 214.035 178.683C217.661 180.176 220.967 177.883 224.273 176.284V176.23ZM110.59 75.1314C107.978 74.225 105.418 73.0519 103.072 71.5588C101.206 69.8525 98.9127 67.1331 96.9398 68.8927C94.1671 71.3456 92.3008 67.5063 90.9677 68.7861C88.4616 71.2389 84.6757 71.8255 81.583 70.2258C77.7971 68.0929 75.0777 72.4653 71.7184 70.599C64.6265 66.0133 60.734 75.1848 53.3222 74.4916C47.1369 73.7451 47.5634 79.9838 43.7242 79.9304C38.3387 79.5572 35.0327 83.0764 31.7801 86.7024C36.6324 96.8336 36.2591 108.138 38.7119 118.856C36.0992 120.722 40.3116 121.468 39.4585 123.228C36.8457 126.854 38.392 129.36 41.3247 132.08C42.3912 133.573 38.9786 133.786 40.4716 136.505C43.6709 144.024 43.031 153.728 44.2575 161.94C45.1639 166.046 47.1369 169.672 45.3239 174.097C44.9506 175.004 47.99 176.764 45.8571 179.376C45.6972 186.095 51.0827 192.227 44.844 199.532C55.7217 199.639 63.6667 194.84 74.0646 193.24C76.7307 192.6 79.7167 195.266 82.3295 192.014C84.0892 189.828 87.5551 189.508 90.7011 189.988C93.6872 190.467 96.7265 189.828 99.286 188.228C100.992 187.801 103.445 188.388 104.458 187.375C106.325 185.508 107.551 188.335 107.764 187.908C110.964 182.576 115.496 187.908 120.668 185.615C119.388 183.589 117.735 181.669 118.055 181.243C121.041 177.19 116.562 173.298 118.055 169.672C119.015 167.219 115.176 166.099 117.309 163.433C119.655 160.447 115.496 159.647 114.536 157.674C114.056 156.874 114.003 155.915 114.27 155.061C117.522 149.623 112.403 144.237 114.163 138.851C111.177 129.147 110.324 118.909 111.657 108.831C109.79 105.045 110.91 101.686 110.377 98.1666C111.71 90.6482 106.111 91.608 112.243 86.4891C109.328 83.2542 108.777 79.4861 110.59 75.1848V75.1314Z"/>
</svg>

