<svg viewBox="0 0 256 256" fill="currentColor" xmlns="http://www.w3.org/2000/svg">
<path d="M35.0208 59.6512V182.136C47.7159 182.959 59.6229 184.693 70.6895 187.355C69.3116 199.757 70.1296 212.305 73.1059 224.424C57.5567 219.241 39.0482 216.614 17.5104 216.614C12.8664 216.614 8.41252 214.77 5.12868 211.486C1.84484 208.202 0 203.748 0 199.104V41.5104C0 36.8664 1.84484 32.4125 5.12868 29.1287C8.41252 25.8448 12.8664 24 17.5104 24C61.1814 24 96.3948 33.6482 122.573 53.3825C148.751 33.6482 183.964 24 227.635 24C232.279 24 236.733 25.8448 240.017 29.1287C243.301 32.4125 245.146 36.8664 245.146 41.5104V120.798C234.94 111.65 223.043 104.589 210.125 100.013V59.6512C176.68 62.1377 151.815 72.031 134.953 88.9111C131.669 92.1938 127.216 94.0379 122.573 94.0379C117.93 94.0379 113.477 92.1938 110.193 88.9111C93.313 72.031 68.4657 62.1377 35.0208 59.6512ZM114.571 155.818L145.424 185.814C147.245 187.565 150.204 187.372 151.745 185.358L178.308 150.933C178.706 150.42 179.216 150.005 179.799 149.72C180.381 149.434 181.022 149.286 181.67 149.286C182.319 149.286 182.96 149.434 183.542 149.72C184.125 150.005 184.635 150.42 185.032 150.933L211.596 185.358C211.962 185.831 212.423 186.222 212.95 186.504C213.478 186.787 214.058 186.955 214.655 186.998C215.251 187.041 215.85 186.957 216.412 186.753C216.974 186.549 217.487 186.229 217.917 185.814L248.77 155.818C249.416 155.187 250.245 154.778 251.138 154.649C252.031 154.521 252.942 154.679 253.739 155.102C254.536 155.525 255.178 156.19 255.573 157.002C255.967 157.814 256.093 158.73 255.932 159.618L242.957 231.691H120.384L107.426 159.618C107.271 158.734 107.399 157.822 107.793 157.015C108.187 156.208 108.826 155.546 109.619 155.125C110.412 154.703 111.318 154.543 112.207 154.667C113.097 154.792 113.924 155.195 114.571 155.818Z" fill="black"/>
</svg>
