<svg viewBox="0 0 256 256" fill="currentColor" xmlns="http://www.w3.org/2000/svg">
<path d="M244.678 31.5932V119.949C236.41 113.733 227.243 108.814 217.491 105.364V45.4991C174.985 47.5245 147.391 59.3098 133.648 79.9171C132.407 81.7788 130.725 83.3052 128.752 84.361C126.78 85.4167 124.577 85.9691 122.339 85.9691C120.101 85.9691 117.898 85.4167 115.925 84.361C113.952 83.3052 112.271 81.7788 111.029 79.9171C97.3002 59.3098 69.706 47.5245 27.1864 45.4991V194.997C40.9135 195.49 54.5653 197.255 67.9661 200.271V215.102C67.9661 219.669 68.2651 224.168 68.8496 228.572C53.8019 224.155 35.4103 221.898 13.5932 221.898C9.98807 221.898 6.53058 220.466 3.98136 217.917C1.43214 215.368 0 211.91 0 208.305V31.5932C0 27.9881 1.43214 24.5306 3.98136 21.9814C6.53058 19.4321 9.98807 18 13.5932 18C62.923 18 99.4479 28.8066 122.339 51.1946C145.23 28.8066 181.755 18 231.085 18C234.69 18 238.147 19.4321 240.696 21.9814C243.246 24.5306 244.678 27.9881 244.678 31.5932ZM114.835 163.148L145.624 193.094C147.446 194.861 150.395 194.644 151.945 192.646L178.452 158.296C178.849 157.784 179.359 157.371 179.941 157.086C180.522 156.802 181.162 156.654 181.809 156.654C182.457 156.654 183.096 156.802 183.678 157.086C184.26 157.371 184.769 157.784 185.167 158.296L211.674 192.646C212.04 193.118 212.502 193.508 213.029 193.79C213.557 194.071 214.137 194.239 214.734 194.281C215.33 194.324 215.929 194.24 216.491 194.035C217.052 193.831 217.565 193.51 217.994 193.094L248.783 163.148C249.429 162.521 250.258 162.116 251.15 161.99C252.041 161.863 252.95 162.023 253.745 162.447C254.539 162.87 255.18 163.534 255.573 164.344C255.966 165.154 256.092 166.068 255.933 166.954L242.979 238.89H120.64L107.685 166.954C107.526 166.068 107.652 165.154 108.046 164.344C108.439 163.534 109.079 162.87 109.874 162.447C110.669 162.023 111.577 161.863 112.469 161.99C113.361 162.116 114.189 162.521 114.835 163.148Z" fill="black"/>
</svg>
