<svg width="1366" height="640" viewBox="0 0 1366 640" fill="none" xmlns="http://www.w3.org/2000/svg">
    <g clip-path="url(#clip0_5_796)">
        <rect width="1366" height="640" transform="matrix(-1 0 0 1 1366 0)" fill="#FAD4EC"/>
        <path d="M-729.885 -1480.83C-69.2482 -1283.37 1235.71 -747.734 1339.07 -349.437C1494.96 251.28 741.305 -90.5021 -273.201 -387.943C-354.12 -415.443 -508.707 -430.562 -479.696 -271.033C-425.3 28.0824 129.05 179.287 277.608 256.823C426.167 334.359 1016.75 458.425 1085.65 822.202C1132.99 1072.15 872.273 1233.11 762.365 1176.97C581.197 1086.1 279.638 1143.69 375.339 1464.73C451.445 1596.53 510.994 1781.83 806.649 1862.48" stroke="#FFE3F4" stroke-width="576" stroke-linecap="round" stroke-linejoin="round"/>
    </g>

</svg>
