<svg width="280" height="201" viewBox="0 0 280 201" fill="none" xmlns="http://www.w3.org/2000/svg">
<circle cx="228.801" cy="77.3919" r="28.9122" fill="#FCB706"/>
<path d="M108.655 53.6196C108.655 50.7809 110.956 48.4797 113.795 48.4797H228.159C230.998 48.4797 233.299 50.7809 233.299 53.6196V106.304H108.655V53.6196Z" fill="#FDD673"/>
<path d="M120.22 63.9602C120.22 61.0979 122.558 58.787 125.42 58.8206L215.369 59.8749C218.185 59.9079 220.449 62.1993 220.449 65.0145V99.8792H120.22V63.9602Z" fill="#FCB706"/>
<path d="M66.4573 84.9367L69.2949 82.443C71.5167 80.4903 74.5675 79.7773 77.4246 80.5429L107.583 88.6238C110.44 89.3893 112.725 91.5322 113.673 94.3342L114.884 97.9126C116.188 101.769 114.693 106.017 111.261 108.206L89.1511 122.31C84.7719 125.104 78.9396 123.541 76.5438 118.932L64.4477 95.6624C62.5703 92.0506 63.3997 87.6239 66.4573 84.9367Z" fill="#E83FA4"/>
<mask id="mask0_1_998" style="mask-type:alpha" maskUnits="userSpaceOnUse" x="63" y="80" width="53" height="44">
<path d="M66.4571 84.9371L69.2947 82.4434C71.5165 80.4907 74.5673 79.7777 77.4244 80.5433L107.583 88.6242C110.44 89.3897 112.725 91.5326 113.673 94.3345L114.884 97.913C116.188 101.769 114.693 106.017 111.261 108.206L89.1509 122.31C84.7717 125.104 78.9394 123.541 76.5436 118.932L64.4476 95.6628C62.5701 92.051 63.3995 87.6243 66.4571 84.9371Z" fill="#ED6FD4"/>
</mask>
<g mask="url(#mask0_1_998)">
<path d="M104.513 101.186L117.814 104.75L85.1019 126.935L80.8094 125.785L100.031 102.613C101.118 101.302 102.868 100.745 104.513 101.186Z" fill="#C03187"/>
<path d="M72.9738 92.7349L59.6727 89.1709L76.9097 124.74L81.2022 125.89L76.1415 96.2115C75.8554 94.5334 74.6182 93.1755 72.9738 92.7349Z" fill="#C03187"/>
</g>
<path d="M87.0744 86.9914L82.5254 89.1958C79.7486 90.5415 80.1355 94.6133 83.1161 95.4119L94.7124 98.5191C97.693 99.3178 100.064 95.985 98.3319 93.4312L95.4947 89.2476C93.6375 86.5091 90.052 85.5484 87.0744 86.9914Z" fill="#C03187"/>
<path d="M226.507 126.486L222.861 127.475C220.006 128.248 216.954 127.544 214.726 125.598L191.214 105.056C188.986 103.109 187.879 100.179 188.263 97.2459L188.753 93.5001C189.281 89.4639 192.495 86.309 196.54 85.8559L222.603 82.9372C227.765 82.3591 232.312 86.3318 232.432 91.5248L233.037 117.743C233.131 121.813 230.436 125.421 226.507 126.486Z" fill="#E83FA4"/>
<mask id="mask1_1_998" style="mask-type:alpha" maskUnits="userSpaceOnUse" x="188" y="82" width="46" height="46">
<path d="M226.508 126.486L222.862 127.474C220.007 128.248 216.954 127.544 214.726 125.598L191.214 105.055C188.987 103.109 187.879 100.178 188.263 97.2455L188.753 93.4998C189.281 89.4636 192.495 86.3086 196.54 85.8556L222.603 82.9368C227.765 82.3587 232.312 86.3314 232.432 91.5244L233.038 117.743C233.132 121.813 230.437 125.421 226.508 126.486Z" fill="#ED6FD4"/>
</mask>
<g mask="url(#mask1_1_998)">
<path d="M199.505 95.1315L189.135 86.0713L228.276 80.5698L231.622 83.4936L204.157 95.8252C202.604 96.5225 200.787 96.2516 199.505 95.1315Z" fill="#C03187"/>
<path d="M224.094 116.615L234.464 125.675L234.662 86.1499L231.316 83.2261L222.782 112.098C222.299 113.73 222.812 115.494 224.094 116.615Z" fill="#C03187"/>
</g>
<path d="M208.905 115.557L213.96 115.583C217.045 115.598 218.492 111.773 216.168 109.743L207.128 101.844C204.804 99.8133 201.207 101.76 201.637 104.816L202.34 109.822C202.801 113.099 205.596 115.541 208.905 115.557Z" fill="#C03187"/>
<path d="M146.261 97.9129L147.471 94.3345C148.419 91.5325 150.705 89.3897 153.562 88.6241L183.72 80.5432C186.577 79.7777 189.628 80.4907 191.85 82.4433L194.687 84.9371C197.745 87.6242 198.575 92.0509 196.697 95.6627L184.601 118.932C182.205 123.541 176.373 125.104 171.994 122.31L149.883 108.206C146.452 106.017 144.957 101.769 146.261 97.9129Z" fill="#E83FA4"/>
<mask id="mask2_1_998" style="mask-type:alpha" maskUnits="userSpaceOnUse" x="145" y="80" width="53" height="44">
<path d="M146.261 97.9133L147.472 94.3349C148.419 91.5329 150.705 89.3901 153.562 88.6245L183.72 80.5436C186.577 79.7781 189.628 80.4911 191.85 82.4437L194.688 84.9374C197.745 87.6246 198.575 92.0513 196.697 95.6631L184.601 118.933C182.205 123.541 176.373 125.104 171.994 122.311L149.884 108.207C146.452 106.018 144.957 101.769 146.261 97.9133Z" fill="#ED6FD4"/>
</mask>
<g mask="url(#mask2_1_998)">
<path d="M187.343 92.9573L200.644 89.3932L183.407 124.962L179.114 126.112L184.175 96.4338C184.461 94.7557 185.698 93.3979 187.343 92.9573Z" fill="#C03187"/>
<path d="M155.804 101.408L142.503 104.972L175.215 127.157L179.507 126.007L160.285 102.835C159.198 101.525 157.448 100.967 155.804 101.408Z" fill="#C03187"/>
</g>
<path d="M165.143 89.3837L162.306 93.5673C160.574 96.1211 162.945 99.4539 165.926 98.6553L177.522 95.548C180.502 94.7494 180.889 90.6776 178.112 89.332L173.564 87.1275C170.586 85.6845 167 86.6452 165.143 89.3837Z" fill="#C03187"/>
<path d="M147.007 107.132L145.796 110.71C144.848 113.512 142.563 115.655 139.706 116.421L109.547 124.502C106.69 125.267 103.64 124.554 101.418 122.602L98.5801 120.108C95.5225 117.421 94.6931 112.994 96.5705 109.382L108.667 86.1127C111.062 81.5038 116.895 79.9411 121.274 82.7346L143.384 96.8386C146.816 99.0277 148.311 103.276 147.007 107.132Z" fill="#E83FA4"/>
<mask id="mask3_1_998" style="mask-type:alpha" maskUnits="userSpaceOnUse" x="95" y="81" width="53" height="44">
<path d="M147.007 107.132L145.796 110.71C144.848 113.512 142.563 115.655 139.705 116.42L109.547 124.501C106.69 125.267 103.639 124.554 101.418 122.601L98.58 120.107C95.5223 117.42 94.6929 112.994 96.5704 109.382L108.666 86.1123C111.062 81.5034 116.895 79.9407 121.274 82.7342L143.384 96.8381C146.816 99.0273 148.311 103.276 147.007 107.132Z" fill="#ED6FD4"/>
</mask>
<g mask="url(#mask3_1_998)">
<path d="M105.925 112.088L92.6238 115.652L109.861 80.083L114.153 78.9328L109.093 108.611C108.806 110.289 107.569 111.647 105.925 112.088Z" fill="#C03187"/>
<path d="M137.464 103.637L150.765 100.073L118.053 77.8879L113.76 79.0381L132.982 102.21C134.069 103.52 135.82 104.077 137.464 103.637Z" fill="#C03187"/>
</g>
<path d="M128.124 115.661L130.962 111.478C132.694 108.924 130.323 105.591 127.342 106.39L115.746 109.497C112.765 110.296 112.378 114.367 115.155 115.713L119.704 117.917C122.682 119.36 126.267 118.4 128.124 115.661Z" fill="#C03187"/>
<path d="M126.635 35.6844L128.73 32.5412C130.371 30.08 133.133 28.6017 136.091 28.6017H167.313C170.271 28.6017 173.033 30.08 174.674 32.5412L176.769 35.6844C179.027 39.0713 178.683 43.5619 175.935 46.5646L158.228 65.9106C154.721 69.7423 148.683 69.7423 145.176 65.9106L127.47 46.5646C124.721 43.5619 124.377 39.0713 126.635 35.6844Z" fill="#E83FA4"/>
<mask id="mask4_1_998" style="mask-type:alpha" maskUnits="userSpaceOnUse" x="125" y="28" width="54" height="41">
<path d="M126.635 35.6848L128.73 32.5416C130.371 30.0804 133.133 28.6021 136.091 28.6021H167.313C170.271 28.6021 173.033 30.0804 174.674 32.5416L176.769 35.6848C179.027 39.0717 178.683 43.5623 175.935 46.565L158.228 65.911C154.721 69.7427 148.683 69.7427 145.176 65.911L127.47 46.565C124.721 43.5623 124.377 39.0717 126.635 35.6848Z" fill="#ED6FD4"/>
</mask>
<g mask="url(#mask4_1_998)">
<path d="M167.599 41.5302H181.369L155.514 71.4257H151.07L163.64 44.0685C164.35 42.5216 165.897 41.5302 167.599 41.5302Z" fill="#F9BBE1"/>
<path d="M134.947 41.5302H121.177L147.033 71.4257H151.477L138.907 44.0685C138.196 42.5216 136.65 41.5302 134.947 41.5302Z" fill="#C03187"/>
</g>
<path d="M147.081 32.3329L143.258 35.6396C140.924 37.6581 142.351 41.491 145.437 41.491H157.442C160.528 41.491 161.956 37.6581 159.622 35.6396L155.798 32.3329C153.296 30.1684 149.584 30.1684 147.081 32.3329Z" fill="#F9BBE1"/>
<path d="M171.619 106.304H233.299V171.839C233.299 174.677 230.998 176.979 228.159 176.979H171.619V106.304Z" fill="#FCB706"/>
<path d="M55.9706 111.444C55.9706 108.605 58.2719 106.304 61.1106 106.304H180.615V171.839C180.615 174.677 178.313 176.979 175.475 176.979H61.1106C58.2719 176.979 55.9706 174.677 55.9706 171.839V111.444Z" fill="#FDD673"/>
<path d="M202.086 15.2986C202.424 14.3558 203.758 14.3558 204.096 15.2986L205.805 20.0537C205.912 20.3538 206.149 20.5901 206.449 20.6979L211.204 22.4062C212.147 22.7449 212.147 24.0782 211.204 24.4169L206.449 26.1252C206.149 26.233 205.912 26.4693 205.805 26.7694L204.096 31.5245C203.758 32.4673 202.424 32.4673 202.086 31.5245L200.377 26.7694C200.269 26.4693 200.033 26.233 199.733 26.1252L194.978 24.4169C194.035 24.0782 194.035 22.7449 194.978 22.4062L199.733 20.6979C200.033 20.5901 200.269 20.3538 200.377 20.0537L202.086 15.2986Z" fill="#FCB706"/>
<path d="M86.6633 52.5633C87.002 51.6204 88.3354 51.6205 88.6741 52.5633L89.7631 55.5946C89.8709 55.8947 90.1071 56.131 90.4073 56.2388L93.4386 57.3278C94.3814 57.6665 94.3814 58.9998 93.4386 59.3385L90.4073 60.4275C90.1071 60.5353 89.8709 60.7716 89.7631 61.0717L88.6741 64.103C88.3354 65.0458 87.002 65.0458 86.6633 64.103L85.5743 61.0717C85.4665 60.7716 85.2303 60.5353 84.9301 60.4275L81.8988 59.3385C80.956 58.9998 80.956 57.6665 81.8988 57.3278L84.9301 56.2388C85.2303 56.131 85.4665 55.8947 85.5743 55.5946L86.6633 52.5633Z" fill="#FCB706"/>
<path d="M252.427 145.082C252.766 144.14 254.099 144.14 254.438 145.082L255.527 148.114C255.634 148.414 255.871 148.65 256.171 148.758L259.202 149.847C260.145 150.186 260.145 151.519 259.202 151.858L256.171 152.947C255.871 153.054 255.634 153.291 255.527 153.591L254.438 156.622C254.099 157.565 252.766 157.565 252.427 156.622L251.338 153.591C251.23 153.291 250.994 153.054 250.694 152.947L247.662 151.858C246.72 151.519 246.72 150.186 247.662 149.847L250.694 148.758C250.994 148.65 251.23 148.414 251.338 148.114L252.427 145.082Z" fill="#FCB706"/>
<rect x="103.515" y="115.3" width="28.2698" height="26.9848" rx="6.42494" fill="#FCB706"/>
<circle cx="117.65" cy="124.295" r="3.85497" fill="black"/>
<path d="M116.537 128.792C117.032 127.935 118.268 127.935 118.763 128.792L122.101 134.575C122.596 135.431 121.978 136.502 120.989 136.502H114.312C113.322 136.502 112.704 135.431 113.199 134.575L116.537 128.792Z" fill="black"/>
<path d="M34.9646 133.321L38.6997 132.756C41.6244 132.313 44.5767 133.362 46.5671 135.55L67.577 158.645C69.5675 160.833 70.3327 163.872 69.6162 166.741L68.7012 170.407C67.7153 174.356 64.1617 177.123 60.0911 177.11L33.8656 177.031C28.6712 177.015 24.6081 172.549 25.0826 167.376L27.4781 141.26C27.8499 137.207 30.9398 133.93 34.9646 133.321Z" fill="#E83FA4"/>
<mask id="mask5_1_998" style="mask-type:alpha" maskUnits="userSpaceOnUse" x="25" y="132" width="45" height="46">
<path d="M34.9641 133.321L38.6993 132.756C41.6239 132.314 44.5762 133.362 46.5667 135.55L67.5766 158.646C69.567 160.834 70.3323 163.872 69.6158 166.742L68.7008 170.407C67.7149 174.356 64.1612 177.123 60.0906 177.111L33.8651 177.031C28.6708 177.015 24.6077 172.549 25.0821 167.376L27.4776 141.26C27.8495 137.207 30.9393 133.93 34.9641 133.321Z" fill="#ED6FD4"/>
</mask>
<g mask="url(#mask5_1_998)">
<path d="M58.2058 167.557L67.4722 177.743L27.9593 178.734L24.9689 175.447L53.6638 166.336C55.2863 165.821 57.0603 166.298 58.2058 167.557Z" fill="#F9BBE1"/>
<path d="M36.2341 143.404L26.9677 133.218L22.2522 172.461L25.2426 175.748L37.0209 148.041C37.6869 146.474 37.3796 144.663 36.2341 143.404Z" fill="#C03187"/>
</g>
<path d="M51.2024 146.19L46.1836 145.587C43.1199 145.219 41.2453 148.854 43.3217 151.137L51.4004 160.017C53.4768 162.3 57.2727 160.777 57.1953 157.692L57.0685 152.639C56.9855 149.331 54.4876 146.585 51.2024 146.19Z" fill="#F9BBE1"/>
</svg>
