<svg width="288" height="392" viewBox="0 0 288 392" fill="none" xmlns="http://www.w3.org/2000/svg">
<g clip-path="url(#clip0_10977_1989)">
<rect width="416" height="392" transform="translate(-64)" fill="#D5F3D5"/>
<path d="M-217.185 257.171C-165.34 334.772 -76.6108 260.478 -31.923 214.335C-42.3505 236.839 -66.1398 282.241 -76.4459 305.096C-86.7234 327.888 -89.8525 359.095 -82.0016 384.801C-76.9907 401.208 -56.6645 414.659 -42.3425 422.073C-20.0337 433.621 3.07588 431.466 23.8922 417.982C55.0943 397.771 84.0062 366.646 106.297 336.988C110.4 331.53 128.444 306.648 128.322 307.024C122.175 325.971 111.189 342.051 106.468 362.183C100.329 388.362 97.5466 415.402 102.869 442.137C106.896 462.367 125.066 479.155 145.263 482.628C182.131 488.968 210.138 471.845 239.411 451.066C288.874 415.957 337.906 369.329 371.817 318.696C395.892 282.748 416.453 246.408 419.165 202.321C422.51 147.963 382.257 112.91 331.003 106.547C293.183 101.851 264.308 127.971 240.041 153.756C237.223 156.75 230.509 166.92 234.226 157.747C247.366 125.314 256.986 88.8351 258.426 53.7171C260.401 5.52932 212.151 -45.9506 162.663 -41.4187C115.429 -37.0933 100.475 -12.4241 77.9707 25.8167C73.9539 32.6422 68.1485 40.7631 66.4338 48.5755C62.9495 64.45 72.1541 15.9221 69.4202 -0.100161C64.6397 -28.1163 56.3462 -60.1444 38.8599 -83.1358C32.1318 -91.982 23.2864 -107.499 11.1623 -108.835C-26.26 -112.956 -63.989 -59.6791 -86.9576 -37.3947C-128.812 3.21274 -165.257 56.79 -192.654 107.943C-214.684 149.075 -247.395 211.954 -217.185 257.171Z" fill="#F1FBF1"/>
</g>
<defs>
<clipPath id="clip0_10977_1989">
<rect width="416" height="392" fill="white" transform="translate(-64)"/>
</clipPath>
</defs>
</svg>
