<svg width="357" height="150" viewBox="0 0 357 150" fill="none" xmlns="http://www.w3.org/2000/svg">
    <path d="M124 11H4C1.79086 11 0 12.7909 0 15V135C0 137.209 1.79086 139 4 139H124C126.209 139 128 137.209 128 135V15C128 12.7909 126.209 11 124 11Z" fill="#1865F2"/>
    <path d="M25.5 75H102.5C102.5 96.263 85.263 113.5 64 113.5C42.737 113.5 25.5 96.263 25.5 75Z" fill="white"/>
    <path fill-rule="evenodd" clip-rule="evenodd" d="M64 11H126C127.105 11 128 11.8954 128 13V75H64V11ZM96 56.5C103.456 56.5 109.5 50.4558 109.5 43C109.5 35.5442 103.456 29.5 96 29.5C88.5442 29.5 82.5 35.5442 82.5 43C82.5 50.4558 88.5442 56.5 96 56.5Z" fill="#FFD633"/>
    <path fill-rule="evenodd" clip-rule="evenodd" d="M2 11H64V75H0V13C0 11.8954 0.89543 11 2 11ZM32 56.5C39.4558 56.5 45.5 50.4558 45.5 43C45.5 35.5442 39.4558 29.5 32 29.5C24.5442 29.5 18.5 35.5442 18.5 43C18.5 50.4558 24.5442 56.5 32 56.5Z" fill="#37C5FD"/>
    <path d="M187.56 17.32V14.86H201.18V17.32L196.14 18.04L186 55.42H183.42L173.04 24.34L163.26 55.42H160.68L149.88 17.92L144.9 17.32V14.86H161.22V17.32L155.7 17.98L163.08 45.52L172.2 18.04L166.2 17.32V14.86H182.52V17.32L176.46 18.04L185.4 45.82L193.02 18.1L187.56 17.32ZM213.878 55.78C211.558 55.78 209.338 55.24 207.218 54.16C205.138 53.04 203.438 51.38 202.118 49.18C200.798 46.94 200.138 44.18 200.138 40.9C200.138 37.58 200.798 34.8 202.118 32.56C203.438 30.28 205.138 28.58 207.218 27.46C209.338 26.3 211.558 25.72 213.878 25.72C216.198 25.72 218.398 26.3 220.478 27.46C222.598 28.58 224.318 30.28 225.638 32.56C226.998 34.8 227.678 37.58 227.678 40.9C227.678 44.18 226.998 46.94 225.638 49.18C224.318 51.38 222.598 53.04 220.478 54.16C218.398 55.24 216.198 55.78 213.878 55.78ZM213.878 53.08C216.478 53.08 218.478 52.06 219.878 50.02C221.278 47.94 221.978 44.9 221.978 40.9C221.978 36.86 221.278 33.78 219.878 31.66C218.478 29.54 216.478 28.48 213.878 28.48C211.278 28.48 209.278 29.54 207.878 31.66C206.518 33.78 205.838 36.86 205.838 40.9C205.838 44.9 206.518 47.94 207.878 50.02C209.278 52.06 211.278 53.08 213.878 53.08ZM232.767 55V52.84L237.207 52C237.247 50.48 237.267 48.84 237.267 47.08C237.307 45.32 237.327 43.76 237.327 42.4V39.52C237.327 37.88 237.307 36.52 237.267 35.44C237.267 34.36 237.227 33.22 237.147 32.02L232.407 31.48V29.38L240.807 25.72L241.707 26.32L242.187 31.12C243.667 29.52 245.367 28.22 247.287 27.22C249.207 26.22 251.087 25.72 252.927 25.72C255.527 25.72 257.447 26.6 258.687 28.36C259.967 30.08 260.607 32.9 260.607 36.82V42.4C260.607 43.76 260.607 45.32 260.607 47.08C260.647 48.84 260.687 50.48 260.727 52L264.927 52.84V55H251.007V52.84L255.447 52C255.487 50.52 255.507 48.9 255.507 47.14C255.547 45.34 255.567 43.76 255.567 42.4V37.3C255.567 34.54 255.167 32.64 254.367 31.6C253.607 30.56 252.347 30.04 250.587 30.04C249.227 30.04 247.907 30.32 246.627 30.88C245.347 31.44 243.947 32.36 242.427 33.64V42.4C242.427 43.72 242.427 45.28 242.427 47.08C242.467 48.84 242.507 50.48 242.547 52L246.687 52.84V55H232.767ZM274.854 40.9C274.854 44.82 275.634 47.72 277.194 49.6C278.794 51.44 280.794 52.36 283.194 52.36C284.514 52.36 285.674 52.1 286.674 51.58C287.714 51.02 288.794 50.12 289.914 48.88V32.26C288.554 31.06 287.334 30.24 286.254 29.8C285.174 29.36 284.134 29.14 283.134 29.14C281.654 29.14 280.274 29.56 278.994 30.4C277.754 31.2 276.754 32.48 275.994 34.24C275.234 35.96 274.854 38.18 274.854 40.9ZM290.514 55.6L290.094 51.46C289.054 52.82 287.854 53.88 286.494 54.64C285.174 55.4 283.574 55.78 281.694 55.78C279.254 55.78 277.114 55.16 275.274 53.92C273.434 52.68 271.994 50.96 270.954 48.76C269.954 46.52 269.454 43.94 269.454 41.02C269.454 37.94 270.014 35.26 271.134 32.98C272.254 30.7 273.774 28.92 275.694 27.64C277.614 26.36 279.794 25.72 282.234 25.72C283.634 25.72 284.974 26 286.254 26.56C287.574 27.12 288.854 28.14 290.094 29.62V16.06L284.994 15.46V13.36L294.354 10.66L295.194 11.14L294.954 19.66V52.12L299.814 52.84V55L290.514 55.6ZM316.937 28.48C315.817 28.48 314.677 28.8 313.517 29.44C312.397 30.08 311.417 31.1 310.577 32.5C309.777 33.9 309.257 35.76 309.017 38.08H319.937C321.377 38.08 322.317 37.78 322.757 37.18C323.237 36.58 323.477 35.84 323.477 34.96C323.477 33.8 323.177 32.74 322.577 31.78C322.017 30.78 321.237 29.98 320.237 29.38C319.277 28.78 318.177 28.48 316.937 28.48ZM316.877 55.78C312.837 55.78 309.597 54.48 307.157 51.88C304.717 49.24 303.497 45.62 303.497 41.02C303.497 37.94 304.117 35.26 305.357 32.98C306.637 30.7 308.317 28.92 310.397 27.64C312.517 26.36 314.817 25.72 317.297 25.72C319.377 25.72 321.257 26.18 322.937 27.1C324.617 28.02 325.957 29.34 326.957 31.06C327.957 32.74 328.457 34.8 328.457 37.24C328.457 37.92 328.417 38.56 328.337 39.16C328.257 39.72 328.157 40.2 328.037 40.6H308.897C308.977 44.28 309.897 47.08 311.657 49C313.417 50.92 315.737 51.88 318.617 51.88C320.537 51.88 322.137 51.5 323.417 50.74C324.697 49.94 325.877 48.92 326.957 47.68L328.397 48.82C327.277 50.94 325.757 52.64 323.837 53.92C321.917 55.16 319.597 55.78 316.877 55.78ZM333.903 55V52.84L338.223 52.06C338.263 50.54 338.283 48.9 338.283 47.14C338.323 45.34 338.343 43.76 338.343 42.4V39.52C338.343 37.88 338.323 36.52 338.283 35.44C338.283 34.36 338.243 33.22 338.163 32.02L333.423 31.48V29.38L341.823 25.72L342.723 26.32L343.383 33.4C344.383 31 345.663 29.12 347.223 27.76C348.823 26.4 350.423 25.72 352.023 25.72C352.943 25.72 353.803 25.92 354.603 26.32C355.403 26.72 355.983 27.26 356.343 27.94C356.343 30.86 355.163 32.32 352.803 32.32C352.123 32.32 351.483 32.2 350.883 31.96C350.283 31.68 349.703 31.3 349.143 30.82L348.423 30.16C347.223 31.04 346.223 32.12 345.423 33.4C344.623 34.68 343.963 36.18 343.443 37.9V42.4C343.443 43.72 343.443 45.26 343.443 47.02C343.483 48.78 343.523 50.42 343.563 51.94L348.483 52.84V55H333.903ZM161.28 110.62H157.98C157.98 113.78 157.98 116.7 157.98 119.38C158.02 122.02 158.06 124.62 158.1 127.18H161.76C165.6 127.18 168.46 126.48 170.34 125.08C172.22 123.68 173.16 121.66 173.16 119.02C173.16 116.22 172.22 114.12 170.34 112.72C168.46 111.32 165.44 110.62 161.28 110.62ZM162.24 92.62H158.1C158.06 95.18 158.02 97.78 157.98 100.42C157.98 103.02 157.98 105.5 157.98 107.86H161.1C164.74 107.86 167.38 107.24 169.02 106C170.66 104.76 171.48 102.78 171.48 100.06C171.48 97.34 170.7 95.42 169.14 94.3C167.62 93.18 165.32 92.62 162.24 92.62ZM146.64 92.32V89.86H164.04C168.2 89.86 171.42 90.78 173.7 92.62C175.98 94.46 177.12 96.8 177.12 99.64C177.12 101.76 176.4 103.7 174.96 105.46C173.52 107.22 171.14 108.44 167.82 109.12C171.82 109.68 174.7 110.86 176.46 112.66C178.26 114.46 179.16 116.58 179.16 119.02C179.16 120.82 178.62 122.56 177.54 124.24C176.5 125.92 174.8 127.3 172.44 128.38C170.08 129.46 166.98 130 163.14 130H146.64V127.54L152.16 126.88C152.24 124.36 152.28 121.8 152.28 119.2C152.28 116.6 152.28 114 152.28 111.4V108.46C152.28 105.86 152.28 103.28 152.28 100.72C152.28 98.12 152.24 95.54 152.16 92.98L146.64 92.32ZM182.648 130V127.84L187.448 127C187.488 125.36 187.508 123.76 187.508 122.2C187.548 120.6 187.568 119 187.568 117.4V91.06L182.648 90.46V88.36L192.008 85.66L192.848 86.14L192.608 94.66V117.4C192.608 119 192.608 120.6 192.608 122.2C192.648 123.8 192.688 125.4 192.728 127L197.528 127.84V130H182.648ZM215.46 130.78C213.14 130.78 210.92 130.24 208.8 129.16C206.72 128.04 205.02 126.38 203.7 124.18C202.38 121.94 201.72 119.18 201.72 115.9C201.72 112.58 202.38 109.8 203.7 107.56C205.02 105.28 206.72 103.58 208.8 102.46C210.92 101.3 213.14 100.72 215.46 100.72C217.78 100.72 219.98 101.3 222.06 102.46C224.18 103.58 225.9 105.28 227.22 107.56C228.58 109.8 229.26 112.58 229.26 115.9C229.26 119.18 228.58 121.94 227.22 124.18C225.9 126.38 224.18 128.04 222.06 129.16C219.98 130.24 217.78 130.78 215.46 130.78ZM215.46 128.08C218.06 128.08 220.06 127.06 221.46 125.02C222.86 122.94 223.56 119.9 223.56 115.9C223.56 111.86 222.86 108.78 221.46 106.66C220.06 104.54 218.06 103.48 215.46 103.48C212.86 103.48 210.86 104.54 209.46 106.66C208.1 108.78 207.42 111.86 207.42 115.9C207.42 119.9 208.1 122.94 209.46 125.02C210.86 127.06 212.86 128.08 215.46 128.08ZM247.969 130.78C243.849 130.78 240.569 129.44 238.129 126.76C235.689 124.08 234.469 120.44 234.469 115.84C234.469 112.68 235.109 109.98 236.389 107.74C237.709 105.46 239.429 103.72 241.549 102.52C243.669 101.32 245.929 100.72 248.329 100.72C250.129 100.72 251.789 101.06 253.309 101.74C254.829 102.42 256.089 103.36 257.089 104.56C258.089 105.72 258.709 107.04 258.949 108.52C258.669 110.04 257.749 110.8 256.189 110.8C255.189 110.8 254.429 110.54 253.909 110.02C253.429 109.46 253.089 108.76 252.889 107.92L251.809 103.96C251.249 103.76 250.689 103.64 250.129 103.6C249.609 103.52 249.089 103.48 248.569 103.48C246.009 103.48 243.889 104.48 242.209 106.48C240.569 108.48 239.749 111.4 239.749 115.24C239.749 119 240.649 121.88 242.449 123.88C244.249 125.88 246.549 126.88 249.349 126.88C251.069 126.88 252.649 126.5 254.089 125.74C255.529 124.94 256.709 123.8 257.629 122.32L259.129 123.1C258.289 125.58 256.929 127.48 255.049 128.8C253.169 130.12 250.809 130.78 247.969 130.78ZM262.102 130V127.84L266.902 127C266.942 125.4 266.962 123.8 266.962 122.2C267.002 120.56 267.022 118.96 267.022 117.4V91.06L262.102 90.46V88.36L271.462 85.66L272.302 86.14L272.062 94.66V115.6L282.322 104.92L277.882 103.84V101.5H291.862V103.84L286.222 104.68L279.622 111.46L289.462 127.12L293.422 127.84V130H285.262L276.022 115.12L272.062 119.2C272.062 120.48 272.062 121.78 272.062 123.1C272.102 124.42 272.142 125.72 272.182 127L276.982 127.84V130H262.102ZM304.828 130.78C303.148 130.78 301.608 130.58 300.208 130.18C298.808 129.82 297.368 129.26 295.888 128.5L295.648 121.9H298.948L300.088 127.12C301.488 127.76 303.108 128.08 304.948 128.08C307.228 128.08 308.908 127.66 309.988 126.82C311.108 125.98 311.668 124.88 311.668 123.52C311.668 122.24 311.208 121.22 310.288 120.46C309.368 119.66 307.968 118.94 306.088 118.3L303.328 117.28C301.128 116.48 299.368 115.44 298.048 114.16C296.728 112.88 296.068 111.22 296.068 109.18C296.068 107.7 296.468 106.32 297.268 105.04C298.068 103.76 299.248 102.72 300.808 101.92C302.368 101.12 304.268 100.72 306.508 100.72C308.148 100.72 309.628 100.94 310.948 101.38C312.308 101.78 313.628 102.38 314.908 103.18L314.668 109.3H311.548L310.588 104.5C309.228 103.82 307.848 103.48 306.448 103.48C304.608 103.48 303.208 103.86 302.248 104.62C301.328 105.34 300.868 106.32 300.868 107.56C300.868 108.88 301.268 109.88 302.068 110.56C302.908 111.24 304.348 111.96 306.388 112.72L308.248 113.38C311.248 114.5 313.368 115.78 314.608 117.22C315.888 118.66 316.528 120.32 316.528 122.2C316.528 123.72 316.088 125.14 315.208 126.46C314.328 127.74 313.028 128.78 311.308 129.58C309.588 130.38 307.428 130.78 304.828 130.78Z" fill="black"/>
</svg>
