<svg width="24" height="24" viewBox="0 0 24 24" fill="none" xmlns="http://www.w3.org/2000/svg">
<path fill-rule="evenodd" clip-rule="evenodd" d="M4 12C4 7.58172 7.58172 4 12 4C16.4183 4 20 7.58172 20 12C20 16.4183 16.4183 20 12 20C7.58172 20 4 16.4183 4 12ZM12 2C6.47715 2 2 6.47715 2 12C2 17.5228 6.47715 22 12 22C17.5228 22 22 17.5228 22 12C22 6.47715 17.5228 2 12 2ZM9.75 10.125C9.75 10.7463 9.24632 11.25 8.625 11.25C8.00368 11.25 7.5 10.7463 7.5 10.125C7.5 9.50368 8.00368 9 8.625 9C9.24632 9 9.75 9.50368 9.75 10.125ZM15.375 11.25C15.9963 11.25 16.5 10.7463 16.5 10.125C16.5 9.50368 15.9963 9 15.375 9C14.7537 9 14.25 9.50368 14.25 10.125C14.25 10.7463 14.7537 11.25 15.375 11.25ZM8.96488 13.7479C8.68763 13.2703 8.07567 13.1078 7.59801 13.3851C7.12036 13.6623 6.9579 14.2743 7.23515 14.7519C7.71955 15.5865 8.41464 16.2791 9.25086 16.7606C10.0871 17.2421 11.0351 17.4956 12 17.4956C12.965 17.4956 13.913 17.2421 14.7492 16.7606C15.5854 16.2791 16.2805 15.5865 16.7649 14.7519C17.0421 14.2743 16.8797 13.6623 16.402 13.3851C15.9244 13.1078 15.3124 13.2703 15.0352 13.7479C14.7266 14.2795 14.2838 14.7207 13.7512 15.0274C13.2185 15.3341 12.6147 15.4956 12 15.4956C11.3854 15.4956 10.7815 15.3341 10.2489 15.0274C9.7162 14.7207 9.27344 14.2795 8.96488 13.7479Z" fill="#21242C" fill-opacity="0.64"/>
</svg>
