<svg width="24" height="24" viewBox="0 0 24 24" fill="none" xmlns="http://www.w3.org/2000/svg">
<path fill-rule="evenodd" clip-rule="evenodd" d="M10.7505 2.33557C11.1301 2.11544 11.5612 1.99951 12 1.99951C12.4388 1.99951 12.8698 2.11544 13.2494 2.33557C13.6282 2.55524 13.9424 2.87089 14.1603 3.25068L14.1616 3.25305L22.4097 17.4997C22.6288 17.8791 22.7443 18.3094 22.7447 18.7475C22.7451 19.1856 22.6303 19.6161 22.412 19.9959C22.1936 20.3757 21.8792 20.6915 21.5004 20.9115C21.1216 21.1316 20.6916 21.2482 20.2535 21.2497L20.25 21.2497H3.74997L3.74645 21.2497C3.30835 21.2482 2.87835 21.1316 2.49953 20.9115C2.12071 20.6915 1.80636 20.3757 1.58798 19.9959C1.36961 19.6161 1.25486 19.1856 1.25525 18.7475C1.25564 18.3094 1.37114 17.8791 1.5902 17.4997L9.83829 3.25305L9.83965 3.25068C10.0576 2.87089 10.3717 2.55524 10.7505 2.33557ZM10.7062 3.74975L11.5716 4.25079L3.32224 18.4998C3.27857 18.5755 3.25533 18.6618 3.25525 18.7493C3.25517 18.8369 3.27812 18.923 3.3218 18.999C3.36547 19.075 3.42834 19.1381 3.50411 19.1821C3.57952 19.2259 3.66508 19.2492 3.75228 19.2497H20.2477C20.3349 19.2492 20.4204 19.2259 20.4958 19.1821C20.5716 19.1381 20.6345 19.075 20.6781 18.999C20.7218 18.923 20.7448 18.8369 20.7447 18.7493C20.7446 18.6619 20.7216 18.576 20.678 18.5003L12.4258 4.24645C12.3828 4.17143 12.3209 4.10907 12.2461 4.06571C12.1713 4.02235 12.0864 3.99951 12 3.99951C11.9135 3.99951 11.8286 4.02235 11.7538 4.06571C11.6791 4.10907 11.6171 4.17142 11.5741 4.24645L10.7062 3.74975ZM12 8.75C12.5523 8.75 13 9.19772 13 9.75V13.5C13 14.0523 12.5523 14.5 12 14.5C11.4477 14.5 11 14.0523 11 13.5V9.75C11 9.19772 11.4477 8.75 12 8.75ZM13.125 16.875C13.125 17.4963 12.6213 18 12 18C11.3787 18 10.875 17.4963 10.875 16.875C10.875 16.2537 11.3787 15.75 12 15.75C12.6213 15.75 13.125 16.2537 13.125 16.875Z" fill="#21242C" fill-opacity="0.64"/>
</svg>
